<svg xmlns="http://www.w3.org/2000/svg" xmlns:xlink="http://www.w3.org/1999/xlink" contentStyleType="text/css" data-diagram-type="DESCRIPTION" height="427px" preserveAspectRatio="none" style="width:1067px;height:427px;background:#FFFFFF;" version="1.1" viewBox="0 0 1067 427" width="1067px" zoomAndPan="magnify"><defs/><g><!--cluster Task Extraction--><g class="cluster" data-entity="Task Extraction" data-source-line="4" data-uid="ent0002" id="cluster_Task Extraction"><rect fill="none" height="229" rx="2.5" ry="2.5" style="stroke:#181818;stroke-width:1;" width="217" x="7" y="51"/><text fill="#000000" font-family="sans-serif" font-size="14" font-weight="bold" lengthAdjust="spacing" textLength="125.9995" x="52.5003" y="66.5099">Task Extraction</text></g><!--cluster Task Executor--><g class="cluster" data-entity="Task Executor" data-source-line="11" data-uid="ent0007" id="cluster_Task Executor"><rect fill="none" height="414.5" rx="2.5" ry="2.5" style="stroke:#181818;stroke-width:1;" width="424" x="363" y="7"/><text fill="#000000" font-family="sans-serif" font-size="14" font-weight="bold" lengthAdjust="spacing" textLength="109.1995" x="520.4002" y="22.5099">Task Executor</text></g><!--cluster Bridge--><g class="cluster" data-entity="Bridge" data-source-line="12" data-uid="ent0008" id="cluster_Bridge"><rect fill="none" height="229" rx="2.5" ry="2.5" style="stroke:#181818;stroke-width:1;" width="144" x="387" y="51"/><text fill="#000000" font-family="sans-serif" font-size="14" font-weight="bold" lengthAdjust="spacing" textLength="50.3998" x="433.8001" y="66.5099">Bridge</text></g><!--cluster Sensors--><g class="cluster" data-entity="Sensors" data-source-line="16" data-uid="ent0011" id="cluster_Sensors"><rect fill="none" height="89.5" rx="2.5" ry="2.5" style="stroke:#181818;stroke-width:1;" width="204" x="559" y="51"/><text fill="#000000" font-family="sans-serif" font-size="14" font-weight="bold" lengthAdjust="spacing" textLength="58.7997" x="631.6001" y="66.5099">Sensors</text></g><!--cluster Actuators--><g class="cluster" data-entity="Actuators" data-source-line="19" data-uid="ent0013" id="cluster_Actuators"><rect fill="none" height="207" rx="2.5" ry="2.5" style="stroke:#181818;stroke-width:1;" width="208" x="555" y="190.5"/><text fill="#000000" font-family="sans-serif" font-size="14" font-weight="bold" lengthAdjust="spacing" textLength="75.5997" x="621.2002" y="206.0099">Actuators</text></g><!--entity tasks--><g class="entity" data-entity="tasks" data-source-line="5" data-uid="ent0003" id="entity_tasks"><rect fill="#F1F1F1" height="37.4999" rx="2.5" ry="2.5" style="stroke:#181818;stroke-width:0.5;" width="61.9998" x="146" y="87"/><text fill="#000000" font-family="sans-serif" font-size="14" lengthAdjust="spacing" textLength="41.9998" x="156" y="110.5099">Tasks</text></g><!--entity screenshot--><g class="entity" data-entity="screenshot" data-source-line="6" data-uid="ent0004" id="entity_screenshot"><rect fill="#F1F1F1" height="37.4999" rx="2.5" ry="2.5" style="stroke:#181818;stroke-width:0.5;" width="103.9996" x="23" y="226.5"/><text fill="#000000" font-family="sans-serif" font-size="14" lengthAdjust="spacing" textLength="83.9996" x="33" y="250.0099">Screenshot</text></g><!--entity llm--><g class="entity" data-entity="llm" data-source-line="7" data-uid="ent0005" id="entity_llm"><rect fill="#F1F1F1" height="37.4999" rx="2.5" ry="2.5" style="stroke:#181818;stroke-width:0.5;" width="45.1999" x="162.4" y="226.5"/><text fill="#000000" font-family="sans-serif" font-size="14" lengthAdjust="spacing" textLength="25.1999" x="172.4" y="250.0099">LLM</text></g><!--entity next--><g class="entity" data-entity="next" data-source-line="13" data-uid="ent0009" id="entity_next"><rect fill="#F1F1F1" height="37.4999" rx="2.5" ry="2.5" style="stroke:#181818;stroke-width:0.5;" width="112.3996" x="402.8" y="87"/><text fill="#000000" font-family="sans-serif" font-size="14" lengthAdjust="spacing" textLength="92.3996" x="412.8" y="110.5099">Next Action</text></g><!--entity memory--><g class="entity" data-entity="memory" data-source-line="14" data-uid="ent0010" id="entity_memory"><rect fill="#F1F1F1" height="37.4999" rx="2.5" ry="2.5" style="stroke:#181818;stroke-width:0.5;" width="70.3998" x="423.8" y="226.5"/><text fill="#000000" font-family="sans-serif" font-size="14" lengthAdjust="spacing" textLength="50.3998" x="433.8" y="250.0099">Memory</text></g><!--entity abstraction--><g class="entity" data-entity="abstraction" data-source-line="17" data-uid="ent0012" id="entity_abstraction"><rect fill="#F1F1F1" height="37.4999" rx="2.5" ry="2.5" style="stroke:#181818;stroke-width:0.5;" width="171.1993" x="575.4" y="87"/><text fill="#000000" font-family="sans-serif" font-size="14" lengthAdjust="spacing" textLength="151.1993" x="585.4" y="110.5099">Layout abstraction</text></g><!--entity actuators--><g class="entity" data-entity="actuators" data-source-line="20" data-uid="ent0014" id="entity_actuators"><ellipse cx="580" cy="245.25" fill="#F1F1F1" rx="8" ry="8" style="stroke:#181818;stroke-width:0.5;"/></g><!--entity finish--><g class="entity" data-entity="finish" data-source-line="21" data-uid="ent0015" id="entity_finish"><rect fill="#F1F1F1" height="37.4999" rx="2.5" ry="2.5" style="stroke:#181818;stroke-width:0.5;" width="70.3998" x="623.8" y="226.5"/><text fill="#000000" font-family="sans-serif" font-size="14" lengthAdjust="spacing" textLength="50.3998" x="633.8" y="250.0099">Finish</text></g><!--entity action--><g class="entity" data-entity="action" data-source-line="22" data-uid="ent0016" id="entity_action"><rect fill="#F1F1F1" height="37.4999" rx="2.5" ry="2.5" style="stroke:#181818;stroke-width:0.5;" width="70.3998" x="657.8" y="344"/><text fill="#000000" font-family="sans-serif" font-size="14" lengthAdjust="spacing" textLength="50.3998" x="667.8" y="367.5099">Action</text></g><!--entity actuators_end--><g class="entity" data-entity="actuators_end" data-source-line="23" data-uid="ent0017" id="entity_actuators_end"><ellipse cx="738" cy="245.25" fill="#F1F1F1" rx="8" ry="8" style="stroke:#181818;stroke-width:0.5;"/></g><!--entity controller--><g class="entity" data-entity="controller" data-source-line="9" data-uid="ent0006" id="entity_controller"><rect fill="#F1F1F1" height="37.4999" rx="2.5" ry="2.5" style="stroke:#181818;stroke-width:0.5;" width="103.9996" x="243" y="87"/><text fill="#000000" font-family="sans-serif" font-size="14" lengthAdjust="spacing" textLength="83.9996" x="253" y="110.5099">Controller</text></g><!--entity mail--><g class="entity" data-entity="mail" data-source-line="27" data-uid="ent0018" id="entity_mail"><rect fill="#F1F1F1" height="37.4999" rx="2.5" ry="2.5" style="stroke:#181818;stroke-width:0.5;" width="53.5999" x="928.2" y="226.5"/><text fill="#000000" font-family="sans-serif" font-size="14" lengthAdjust="spacing" textLength="33.5999" x="938.2" y="250.0099">Mail</text></g><!--entity sms--><g class="entity" data-entity="sms" data-source-line="28" data-uid="ent0019" id="entity_sms"><rect fill="#F1F1F1" height="37.4999" rx="2.5" ry="2.5" style="stroke:#181818;stroke-width:0.5;" width="45.1999" x="1016.4" y="226.5"/><text fill="#000000" font-family="sans-serif" font-size="14" lengthAdjust="spacing" textLength="25.1999" x="1026.4" y="250.0099">SMS</text></g><!--entity mosquitto--><g class="entity" data-entity="mosquitto" data-source-line="29" data-uid="ent0020" id="entity_mosquitto"><ellipse cx="955" cy="362.75" fill="#F1F1F1" rx="8" ry="8" style="stroke:#181818;stroke-width:0.5;"/><text fill="#000000" font-family="sans-serif" font-size="14" lengthAdjust="spacing" textLength="75.5997" x="917.2002" y="393.2599">Mosquitto</text></g><!--entity graph--><g class="entity" data-entity="graph" data-source-line="30" data-uid="ent0021" id="entity_graph"><rect fill="#F1F1F1" height="37.4999" rx="2.5" ry="2.5" style="stroke:#181818;stroke-width:0.5;" width="154.3994" x="802.8" y="87"/><text fill="#000000" font-family="sans-serif" font-size="14" lengthAdjust="spacing" textLength="134.3994" x="812.8" y="110.5099">Navigation Graph</text></g><!--entity emulator--><g class="entity" data-entity="emulator" data-source-line="31" data-uid="ent0022" id="entity_emulator"><rect fill="#F1F1F1" height="37.4999" rx="2.5" ry="2.5" style="stroke:#181818;stroke-width:0.5;" width="87.1997" x="806.4" y="226.5"/><text fill="#000000" font-family="sans-serif" font-size="14" lengthAdjust="spacing" textLength="67.1997" x="816.4" y="250.0099">Emulator</text></g><!--link tasks to controller--><g class="link" data-entity-1="tasks" data-entity-2="controller" data-source-line="33" data-uid="lnk23" id="link_tasks_controller"><path d="M208.34,105.75 C219.74,105.75 225.14,105.75 236.53,105.75" fill="none" id="tasks-to-controller" style="stroke:#181818;stroke-width:1;"/><polygon fill="#181818" points="242.53,105.75,233.53,101.75,237.53,105.75,233.53,109.75,242.53,105.75" style="stroke:#181818;stroke-width:1;"/></g><!--link controller to next--><g class="link" data-entity-1="controller" data-entity-2="next" data-source-line="34" data-uid="lnk24" id="link_controller_next"><path d="M347.21,105.75 C365.7,105.75 378.18,105.75 396.67,105.75" fill="none" id="controller-to-next" style="stroke:#181818;stroke-width:1;"/><polygon fill="#181818" points="402.67,105.75,393.67,101.75,397.67,105.75,393.67,109.75,402.67,105.75" style="stroke:#181818;stroke-width:1;"/></g><!--reverse link next to memory--><g class="link" data-entity-1="next" data-entity-2="memory" data-source-line="35" data-uid="lnk26" id="link_next_memory"><path d="M448.6319,130.6152 C443.4019,156.9652 444.57,199.92 449.8,226.27" fill="none" id="next-backto-memory" style="stroke:#181818;stroke-width:1;"/><polygon fill="#181818" points="449.8,124.73,444.1244,132.7791,448.8266,129.6343,451.9713,134.3365,449.8,124.73" style="stroke:#181818;stroke-width:1;"/></g><!--link next to memory--><g class="link" data-entity-1="next" data-entity-2="memory" data-source-line="36" data-uid="lnk27" id="link_next_memory"><path d="M468.2,124.73 C473.43,151.08 474.5981,194.0348 469.3681,220.3848" fill="none" id="next-to-memory" style="stroke:#181818;stroke-width:1;"/><polygon fill="#181818" points="468.2,226.27,473.8756,218.2209,469.1734,221.3657,466.0287,216.6635,468.2,226.27" style="stroke:#181818;stroke-width:1;"/></g><!--link emulator to abstraction--><g class="link" data-entity-1="emulator" data-entity-2="abstraction" data-source-line="37" data-uid="lnk28" id="link_emulator_abstraction"><path d="M824.98,226.05 C788.69,199.65 726.6824,154.5291 690.5624,128.2591" fill="none" id="emulator-to-abstraction" style="stroke:#181818;stroke-width:1;"/><polygon fill="#181818" points="685.71,124.73,690.6358,133.2586,689.7536,127.6709,695.3413,126.7888,685.71,124.73" style="stroke:#181818;stroke-width:1;"/><text fill="#000000" font-family="sans-serif" font-size="13" lengthAdjust="spacing" textLength="23.4" x="750.83" y="170.045">ADB</text></g><!--link mail to mosquitto--><g class="link" data-entity-1="mail" data-entity-2="mosquitto" data-source-line="38" data-uid="lnk29" id="link_mail_mosquitto"><path d="M955,264.3 C955,289.68 955,328.88 955,347.44" fill="none" id="mail-to-mosquitto" style="stroke:#181818;stroke-width:1;"/><polygon fill="#181818" points="955,353.44,959,344.44,955,348.44,951,344.44,955,353.44" style="stroke:#181818;stroke-width:1;"/><text fill="#000000" font-family="sans-serif" font-size="13" lengthAdjust="spacing" textLength="31.2" x="956" y="309.545">MQTT</text></g><!--link sms to mosquitto--><g class="link" data-entity-1="sms" data-entity-2="mosquitto" data-source-line="39" data-uid="lnk30" id="link_sms_mosquitto"><path d="M1028.54,264.26 C1020.22,278.19 1008.02,297.77 996,314 C985.33,328.4 975.571,339.5332 967.011,348.8432" fill="none" id="sms-to-mosquitto" style="stroke:#181818;stroke-width:1;"/><polygon fill="#181818" points="962.95,353.26,971.986,349.3421,966.3342,349.5793,966.097,343.9274,962.95,353.26" style="stroke:#181818;stroke-width:1;"/><text fill="#000000" font-family="sans-serif" font-size="13" lengthAdjust="spacing" textLength="31.2" x="1008.39" y="309.545">MQTT</text></g><!--link mosquitto to action--><g class="link" data-entity-1="mosquitto" data-entity-2="action" data-source-line="40" data-uid="lnk31" id="link_mosquitto_action"><path d="M945.55,362.75 C910.89,362.75 795.61,362.75 734.61,362.75" fill="none" id="mosquitto-to-action" style="stroke:#181818;stroke-width:1;"/><polygon fill="#181818" points="728.61,362.75,737.61,366.75,733.61,362.75,737.61,358.75,728.61,362.75" style="stroke:#181818;stroke-width:1;"/><text fill="#000000" font-family="sans-serif" font-size="13" lengthAdjust="spacing" textLength="31.2" x="821.6" y="355.295">MQTT</text></g><!--link abstraction to next--><g class="link" data-entity-1="abstraction" data-entity-2="next" data-source-line="41" data-uid="lnk32" id="link_abstraction_next"><path d="M575.13,105.75 C555.23,105.75 541.32,105.75 521.42,105.75" fill="none" id="abstraction-to-next" style="stroke:#181818;stroke-width:1;"/><polygon fill="#181818" points="515.42,105.75,524.42,109.75,520.42,105.75,524.42,101.75,515.42,105.75" style="stroke:#181818;stroke-width:1;"/></g><!--link next to actuators--><g class="link" data-entity-1="next" data-entity-2="actuators" data-source-line="42" data-uid="lnk33" id="link_next_actuators"><path d="M477.23,125 C492.07,140.08 513.39,162.23 531,182.5 C547.16,201.09 561.2047,219.2815 570.2647,231.2815" fill="none" id="next-to-actuators" style="stroke:#181818;stroke-width:1;"/><polygon fill="#181818" points="573.88,236.07,571.6494,226.4771,570.8672,232.0796,565.2647,231.2975,573.88,236.07" style="stroke:#181818;stroke-width:1;"/></g><!--link actuators_end to emulator--><g class="link" data-entity-1="actuators_end" data-entity-2="emulator" data-source-line="43" data-uid="lnk34" id="link_actuators_end_emulator"><path d="M747.17,245.25 C760.02,245.25 778.26,245.25 799.98,245.25" fill="none" id="actuators_end-to-emulator" style="stroke:#181818;stroke-width:1;"/><polygon fill="#181818" points="805.98,245.25,796.98,241.25,800.98,245.25,796.98,249.25,805.98,245.25" style="stroke:#181818;stroke-width:1;"/><text fill="#000000" font-family="sans-serif" font-size="13" lengthAdjust="spacing" textLength="23.4" x="765.2" y="237.795">ADB</text></g><!--link abstraction to graph--><g class="link" data-entity-1="abstraction" data-entity-2="graph" data-source-line="44" data-uid="lnk35" id="link_abstraction_graph"><path d="M746.97,105.75 C765.42,105.75 777.87,105.75 796.32,105.75" fill="none" id="abstraction-to-graph" style="stroke:#181818;stroke-width:1;"/><polygon fill="#181818" points="802.32,105.75,793.32,101.75,797.32,105.75,793.32,109.75,802.32,105.75" style="stroke:#181818;stroke-width:1;"/></g><!--link screenshot to llm--><g class="link" data-entity-1="screenshot" data-entity-2="llm" data-source-line="46" data-uid="lnk36" id="link_screenshot_llm"><path d="M127.42,245.25 C138.97,245.25 144.51,245.25 156.06,245.25" fill="none" id="screenshot-to-llm" style="stroke:#181818;stroke-width:1;"/><polygon fill="#181818" points="162.06,245.25,153.06,241.25,157.06,245.25,153.06,249.25,162.06,245.25" style="stroke:#181818;stroke-width:1;"/></g><!--reverse link tasks to llm--><g class="link" data-entity-1="tasks" data-entity-2="llm" data-source-line="47" data-uid="lnk38" id="link_tasks_llm"><path d="M178.3978,130.7199 C179.9278,157.0699 182.42,199.92 183.95,226.27" fill="none" id="tasks-backto-llm" style="stroke:#181818;stroke-width:1;"/><polygon fill="#181818" points="178.05,124.73,174.5784,133.9467,178.3398,129.7216,182.565,133.483,178.05,124.73" style="stroke:#181818;stroke-width:1;"/></g><!--link actuators to finish--><g class="link" data-entity-1="actuators" data-entity-2="finish" data-source-line="48" data-uid="lnk39" id="link_actuators_finish"><path d="M589.26,245.25 C600.61,245.25 605.96,245.25 617.31,245.25" fill="none" id="actuators-to-finish" style="stroke:#181818;stroke-width:1;"/><polygon fill="#181818" points="623.31,245.25,614.31,241.25,618.31,245.25,614.31,249.25,623.31,245.25" style="stroke:#181818;stroke-width:1;"/></g><!--link actuators to action--><g class="link" data-entity-1="actuators" data-entity-2="action" data-source-line="49" data-uid="lnk40" id="link_actuators_action"><path d="M584.11,254.44 C588.75,263.25 596.85,277.4 606,288 C624.38,309.28 644.3441,326.0213 662.7541,339.9413" fill="none" id="actuators-to-action" style="stroke:#181818;stroke-width:1;"/><polygon fill="#181818" points="667.54,343.56,662.7736,334.9413,663.5517,340.5444,657.9487,341.3226,667.54,343.56" style="stroke:#181818;stroke-width:1;"/></g><!--link finish to action--><!--link finish to actuators_end--><g class="link" data-entity-1="finish" data-entity-2="actuators_end" data-source-line="51" data-uid="lnk42" id="link_finish_actuators_end"><path d="M694.49,245.25 C705.93,245.25 711.38,245.25 722.82,245.25" fill="none" id="finish-to-actuators_end" style="stroke:#181818;stroke-width:1;"/><polygon fill="#181818" points="728.82,245.25,719.82,241.25,723.82,245.25,719.82,249.25,728.82,245.25" style="stroke:#181818;stroke-width:1;"/></g><!--reverse link actuators_end to action--><g class="link" data-entity-1="actuators_end" data-entity-2="action" data-source-line="52" data-uid="lnk44" id="link_actuators_end_action"><path d="M732.5823,260.1508 C725.3723,278.6608 710.01,318.1 700.1,343.52" fill="none" id="actuators_end-backto-action" style="stroke:#181818;stroke-width:1;"/><polygon fill="#181818" points="734.76,254.56,727.7662,261.4944,732.9452,259.219,735.2206,264.3981,734.76,254.56" style="stroke:#181818;stroke-width:1;"/></g><!--link finish to controller--><g class="link" data-entity-1="finish" data-entity-2="controller" data-source-line="54" data-uid="lnk45" id="link_finish_controller"><path d="M648.88,226.27 C639.83,211.97 625.2,192.73 607,182.5 C520.75,134.02 481.82,176.76 387,148.5 C367.17,142.59 351.4542,135.9077 334.4742,127.5577" fill="none" id="finish-to-controller" style="stroke:#181818;stroke-width:1;"/><polygon fill="#181818" points="329.09,124.91,335.4012,132.471,333.5768,127.1164,338.9314,125.2921,329.09,124.91" style="stroke:#181818;stroke-width:1;"/></g><!--SRC=[TLFBRi8m4BpxArPSQ0_v0Gv8qDU585NX5g7AJLomI6ngEnMeuj_hNUTX20rAs9s9PzVZZJr8TUI6rr3e-gYLK2vpvqg04ONZQbS9rXCmsN1xW9UJCxnmKgi9_3A0756x1Mx1OOHGLXWXbDrhHxZjKoHNgvJGgghPXULFMZcZgqeOGei-PNTAYw9nseJ24Riqijo90FiAQt5oiA0UILFvF32fgBKv4rXJwE7BjLRcEzN6zc8hVjQD0_vfkttJyYWVQ_ZQ3NUHoiCZJFmFrtLKK7-LIjezANvH6E2e-Rx6NPKFeSgsFfgPSbc5tVc0vLcQXGEeBVEBKss_6-cSfZUwXELh_YDt7Cl0c-77qCuE8vQ_r4s5bGWJRS8O7JKay_YyXX09CZsO34dJ0VY0fFHfwtyd6S38LPZ1udd9S2FjWhxx6QJlcmtpk_g76G3KxEI8YYkCcnfEvyfXVBDlDFHrenFScjBVZIt3z2E1K-_lO4duOFfIoBTJS8Mr8n0eI99yByjIgEs8cTyCHjTVCsAcW-zqvKeRhWvUClfOEzc17BRr1m00]--></g></svg>